<?xml version="1.0" encoding="utf-8"?>
<!-- Generator: Adobe Illustrator 16.2.0, SVG Export Plug-In . SVG Version: 6.00 Build 0)  -->
<!DOCTYPE svg PUBLIC "-//W3C//DTD SVG 1.1//EN" "http://www.w3.org/Graphics/SVG/1.1/DTD/svg11.dtd">
<svg version="1.1" id="Слой_1" xmlns="http://www.w3.org/2000/svg" xmlns:xlink="http://www.w3.org/1999/xlink" x="0px" y="0px"
	 width="33px" height="40px" viewBox="0 0 33 40" enable-background="new 0 0 33 40" xml:space="preserve">
<path fill-rule="evenodd" clip-rule="evenodd" fill="#029939" d="M33,13.917V37c0,1.656-1.344,3-3,3H3c-1.657,0-3-0.844-3-2.5V3
	c0-1.657,1.343-3,3-3h16.5h2.914c0.443-0.037,0.896,0.095,1.236,0.434L32.518,9.3c0.329,0.33,0.467,0.769,0.441,1.2H33V13.917H20.5
	c-0.828,0-1.5-0.672-1.5-1.5V3H3v34h27V13.917H33z M22,3.217V11h7.95L22,3.217z"/>
<path fill-rule="evenodd" clip-rule="evenodd" fill="#029939" d="M11.14,22.723l3.875,2.614V17.5c0-0.829,0.672-1.5,1.5-1.5
	s1.499,0.671,1.499,1.5v7.837l3.875-2.614c0.682-0.461,1.554-0.187,1.947,0.609c0.395,0.799,0.16,1.816-0.522,2.277l-5.643,3.809
	c-0.019,0.023-0.049,0.036-0.069,0.059c-0.114,0.137-0.24,0.242-0.383,0.324c-0.001,0.001-0.002,0.001-0.003,0.002
	c-0.177,0.1-0.361,0.155-0.558,0.165c-0.009,0.001-0.017,0.008-0.026,0.008c-0.016,0.003-0.031,0.008-0.048,0.01
	C16.56,29.986,16.539,30,16.515,30c-0.025,0-0.047-0.008-0.07-0.015c-0.017-0.002-0.032-0.007-0.048-0.01
	c-0.015-0.004-0.03-0.007-0.046-0.009c-0.133-0.009-0.261-0.027-0.387-0.078c-0.054-0.021-0.097-0.058-0.147-0.085
	c-0.101-0.057-0.2-0.109-0.288-0.193c-0.051-0.046-0.08-0.109-0.124-0.161l-5.688-3.84c-0.683-0.461-0.916-1.479-0.522-2.277
	C9.586,22.536,10.458,22.262,11.14,22.723z"/>
</svg>
