<?xml version="1.0" encoding="utf-8"?>
<!-- Generator: Adobe Illustrator 16.2.0, SVG Export Plug-In . SVG Version: 6.00 Build 0)  -->
<!DOCTYPE svg PUBLIC "-//W3C//DTD SVG 1.1//EN" "http://www.w3.org/Graphics/SVG/1.1/DTD/svg11.dtd">
<svg version="1.1" id="Слой_1" xmlns="http://www.w3.org/2000/svg" xmlns:xlink="http://www.w3.org/1999/xlink" x="0px" y="0px"
	 width="19.99px" height="27.99px" viewBox="0 0 19.99 27.99" enable-background="new 0 0 19.99 27.99" xml:space="preserve">
<path fill-rule="evenodd" clip-rule="evenodd" fill="#FFFFFF" d="M17.592,27.989H2.398c-1.326,0-2.4-1.075-2.4-2.4V2.401
	c0-1.326,1.074-2.4,2.4-2.4h15.194c1.326,0,2.4,1.075,2.4,2.4v23.188C19.992,26.914,18.918,27.989,17.592,27.989z M17.998,1.964
	H1.992v24h16.006V1.964z M6.186,4.926h7.619c0.662,0,1.199,0.538,1.199,1.2v12.7c0,0.663-0.537,1.2-1.199,1.2H6.186
	c-0.663,0-1.2-0.537-1.2-1.2v-12.7C4.985,5.464,5.523,4.926,6.186,4.926z M7.011,18.001h6V7.076h-6V18.001z M10.198,21.602
	c0.994,0,1.8,0.806,1.8,1.8s-0.806,1.8-1.8,1.8s-1.8-0.806-1.8-1.8S9.204,21.602,10.198,21.602z"/>
</svg>
