<?xml version="1.0" encoding="utf-8"?>
<!-- Generator: Adobe Illustrator 16.2.0, SVG Export Plug-In . SVG Version: 6.00 Build 0)  -->
<!DOCTYPE svg PUBLIC "-//W3C//DTD SVG 1.1//EN" "http://www.w3.org/Graphics/SVG/1.1/DTD/svg11.dtd">
<svg version="1.1" id="Слой_1" xmlns="http://www.w3.org/2000/svg" xmlns:xlink="http://www.w3.org/1999/xlink" x="0px" y="0px"
	 width="48px" height="48px" viewBox="0 0 48 48" enable-background="new 0 0 48 48" xml:space="preserve">
<path fill-rule="evenodd" clip-rule="evenodd" fill="#029939" d="M24,48C10.746,48,0,37.255,0,24S10.746,0,24,0
	c2.303,0,4.522,0.343,6.63,0.949l-2.145,3.575C27.042,4.192,25.545,4,24,4c-11.045,0-20,8.954-20,20c0,11.045,8.954,20,20,20
	s20-8.955,20-20c0-2.356-0.429-4.607-1.177-6.706l2.53-4.216C47.033,16.357,48,20.063,48,24C48,37.255,37.255,48,24,48z
	 M25.832,30.737c-0.091,0.257-0.221,0.503-0.43,0.712c-0.405,0.405-0.939,0.563-1.449,0.518c-0.352,0.006-0.706-0.048-1.033-0.24
	c-0.419-0.248-0.691-0.639-0.849-1.071l-7.634-7.636c-0.655-0.655-0.617-1.755,0.085-2.457c0.701-0.702,1.799-0.739,2.453-0.085
	l6.5,6.503L38.253,5.031c0.562-0.996,1.798-1.34,2.764-0.77c0.964,0.57,1.29,1.839,0.729,2.834L25.832,30.737z"/>
</svg>
