<?xml version="1.0" encoding="utf-8"?>
<!-- Generator: Adobe Illustrator 16.2.0, SVG Export Plug-In . SVG Version: 6.00 Build 0)  -->
<!DOCTYPE svg PUBLIC "-//W3C//DTD SVG 1.1//EN" "http://www.w3.org/Graphics/SVG/1.1/DTD/svg11.dtd">
<svg version="1.1" id="Слой_1" xmlns="http://www.w3.org/2000/svg" xmlns:xlink="http://www.w3.org/1999/xlink" x="0px" y="0px"
	 width="28.06px" height="28.14px" viewBox="0 0 28.06 28.14" enable-background="new 0 0 28.06 28.14" xml:space="preserve">
<path fill-rule="evenodd" clip-rule="evenodd" fill="#FFFFFF" d="M25.718,28.141H2.344C1.049,28.141,0,27.092,0,25.798V2.361
	c0-1.294,1.049-2.343,2.344-2.343h14.758l-2.344,2.094H2.094V26.11H26.03V13.134l2.031-2.344v15.008
	C28.062,27.092,27.012,28.141,25.718,28.141z M11.468,22.157l-5.532,0.017l-0.015-6.063L21.485,0.676
	c0.899-0.902,2.356-0.902,3.255,0l2.442,2.449c0.898,0.901,0.898,2.364,0,3.267L11.468,22.157z M8.016,19.939h3.453l-3.453-3.516
	V19.939z M23.113,2.308L10.296,15.252l2.343,2.343L25.555,4.758L23.113,2.308z"/>
</svg>
