<?xml version="1.0" encoding="utf-8"?>
<!-- Generator: Adobe Illustrator 16.2.0, SVG Export Plug-In . SVG Version: 6.00 Build 0)  -->
<!DOCTYPE svg PUBLIC "-//W3C//DTD SVG 1.1//EN" "http://www.w3.org/Graphics/SVG/1.1/DTD/svg11.dtd">
<svg version="1.1" id="Слой_1" xmlns="http://www.w3.org/2000/svg" xmlns:xlink="http://www.w3.org/1999/xlink" x="0px" y="0px"
	 width="46px" height="46px" viewBox="0 0 46 46" enable-background="new 0 0 46 46" xml:space="preserve">
<path fill-rule="evenodd" clip-rule="evenodd" fill="#029939" d="M46,46l-11.785-2.947c-8.759,4.904-20.035,3.653-27.483-3.795
	c-8.982-8.982-8.982-23.544,0-32.526c8.982-8.982,23.545-8.982,32.526,0c7.448,7.448,8.699,18.725,3.796,27.483L46,46z
	 M36.421,9.509c-7.432-7.432-19.48-7.432-26.912,0c-7.432,7.431-7.432,19.48,0,26.912c6.799,6.798,17.451,7.357,24.907,1.718L40,40
	l-1.861-5.584C43.778,26.96,43.219,16.307,36.421,9.509z"/>
<path fill-rule="evenodd" clip-rule="evenodd" fill="#029939" d="M23,34.996c-1.096,0-1.984-0.893-1.985-1.995V21.022
	c0-1.102,0.889-1.994,1.985-1.994s1.985,0.893,1.985,1.994v11.98C24.984,34.104,24.096,34.996,23,34.996z M23,14.996
	c-1.092,0-1.976-0.886-1.983-1.983c0.006-1.097,0.891-1.985,1.983-1.985s1.977,0.889,1.983,1.985
	C24.977,14.109,24.092,14.996,23,14.996z M21.015,13.002c0,0.003,0.002,0.007,0.002,0.01s-0.002,0.007-0.002,0.01V13.002z
	 M24.984,13.002v0.021c0-0.003-0.002-0.007-0.002-0.01S24.984,13.005,24.984,13.002z"/>
</svg>
